<svg width="98" height="98" viewBox="0 0 98 98" fill="none" xmlns="http://www.w3.org/2000/svg">
<path d="M49 59.5V52.5001M73.5 8.67306C65.7465 5.4002 57.4159 3.71399 49 3.71399C40.5841 3.71399 32.2535 5.4002 24.5 8.67306M64.4 23.3661C54.5041 20.0058 43.7759 20.0058 33.88 23.3661M28 73.5001V59.5C28 53.9305 30.2125 48.5891 34.1508 44.6508C38.089 40.7125 43.4305 38.5001 49 38.5001C54.5695 38.5001 59.911 40.7125 63.8492 44.6508C67.7875 48.5891 70 53.9305 70 59.5V73.5001C70 76.2578 69.4568 78.9886 68.4015 81.5364C67.3461 84.0842 65.7993 86.3993 63.8492 88.3493C61.8992 90.2993 59.5842 91.8462 57.0364 92.9015C54.4885 93.9569 51.7578 94.5001 49 94.5001C46.2422 94.5001 43.5115 93.9569 40.9636 92.9015C38.4158 91.8462 36.1008 90.2993 34.1508 88.3493C32.2007 86.3993 30.6539 84.0842 29.5985 81.5364C28.5432 78.9886 28 76.2578 28 73.5001Z" stroke="white" stroke-width="4.2" stroke-linecap="round" stroke-linejoin="round"/>
</svg>
