<svg width="64" height="64" viewBox="0 0 64 64" fill="none" xmlns="http://www.w3.org/2000/svg">
<path d="M32.0906 33.8159C31.9945 33.5748 31.9711 33.3107 32.0235 33.0564C32.0759 32.8021 32.2016 32.5688 32.3852 32.3852C32.5688 32.2016 32.8021 32.0759 33.0564 32.0235C33.3107 31.9711 33.5748 31.9945 33.8159 32.0906L57.8159 41.4239C58.0732 41.5245 58.293 41.7025 58.4447 41.9333C58.5965 42.1641 58.6729 42.4364 58.6632 42.7125C58.6535 42.9885 58.5584 43.2548 58.3908 43.4745C58.2233 43.6941 57.9916 43.8563 57.7279 43.9386L48.5439 46.7866C48.1296 46.9147 47.7527 47.142 47.446 47.4487C47.1393 47.7554 46.9121 48.1322 46.7839 48.5466L43.9386 57.7279C43.8563 57.9916 43.6941 58.2233 43.4745 58.3908C43.2548 58.5584 42.9885 58.6535 42.7125 58.6632C42.4364 58.6729 42.1641 58.5965 41.9333 58.4447C41.7025 58.293 41.5245 58.0732 41.4239 57.8159L32.0906 33.8159Z" stroke="white" stroke-width="3.6" stroke-linecap="round" stroke-linejoin="round"/>
<path d="M56 29.3333V13.3333C56 11.9188 55.4381 10.5623 54.4379 9.5621C53.4377 8.5619 52.0812 8 50.6667 8H13.3333C11.9188 8 10.5623 8.5619 9.5621 9.5621C8.5619 10.5623 8 11.9188 8 13.3333V50.6667C8 52.0812 8.5619 53.4377 9.5621 54.4379C10.5623 55.4381 11.9188 56 13.3333 56H29.3333" stroke="white" stroke-width="3.6" stroke-linecap="round" stroke-linejoin="round"/>
</svg>
