<svg width="64" height="64" viewBox="0 0 64 64" fill="none" xmlns="http://www.w3.org/2000/svg">
<path d="M37.3334 10.9334L32 16M13.6 21.3334L5.8667 19.2M16 32L10.9334 37.3334M19.2 5.8667L21.3334 13.6M24.0987 25.84C23.9953 25.5964 23.967 25.3275 24.0175 25.0677C24.068 24.808 24.195 24.5692 24.3821 24.3821C24.5692 24.195 24.808 24.068 25.0677 24.0175C25.3275 23.967 25.5964 23.9953 25.84 24.0987L55.1734 36.0987C55.4344 36.2058 55.6548 36.393 55.8027 36.6333C55.9507 36.8736 56.0185 37.1546 55.9966 37.4359C55.9747 37.7172 55.864 37.9844 55.6807 38.1988C55.4973 38.4133 55.2505 38.564 54.976 38.6294L43.3787 41.4054C42.8999 41.5197 42.4622 41.7644 42.1139 42.1122C41.7656 42.46 41.5204 42.8974 41.4054 43.376L38.632 54.976C38.5674 55.2515 38.4168 55.4992 38.2021 55.6834C37.9873 55.8677 37.7196 55.9788 37.4375 56.0008C37.1554 56.0227 36.8737 55.9544 36.633 55.8057C36.3923 55.6569 36.2052 55.4355 36.0987 55.1734L24.0987 25.84Z" stroke="white" stroke-width="2.4" stroke-linecap="round" stroke-linejoin="round"/>
</svg>
